<svg xmlns="http://www.w3.org/2000/svg" width="242" height="124" viewBox="0 0 490 230">
    <path fill="#ffffff" d="M220.151,234.008c-9.826.077-20.351-.344-30.855-1.171-33.061-2.6-65.337-8.85-96.408-20.569-17.91-6.754-34.928-15.2-50.443-26.429-11.042-7.99-20.927-17.15-28.765-28.324A73.681,73.681,0,0,1,1.187,129.14,63.451,63.451,0,0,1,5.333,91.431c5.191-12.222,13.228-22.459,22.88-31.521,13.813-12.97,29.815-22.7,46.949-30.7A292.7,292.7,0,0,1,134.093,9.447Q151.271,5.522,168.757,3.3q15.441-1.988,31-2.757C211.069-.03,222.384-0.172,233.7.181q15.568,0.484,31.059,2.138a354,354,0,0,1,68.548,14c19.752,6.207,38.68,14.228,56.256,25.186,11.651,7.263,22.369,15.651,31.5,25.911,8.533,9.59,15.19,20.254,18.59,32.685,4.389,16.046,2.514,31.5-4.8,46.376-5.429,11.042-13.151,20.372-22.2,28.676-13.115,12.035-28.131,21.249-44.184,28.886a290.819,290.819,0,0,1-60.11,20.437q-14.553,3.343-29.334,5.466-13.8,1.989-27.707,2.986C241.178,233.653,231.03,234.05,220.151,234.008Zm0.208-6.636c9.43,0.041,18.236-.282,27.035-0.865q10.954-.729,21.841-2.091,15.042-1.892,29.864-5.071a283.729,283.729,0,0,0,55.51-17.714c16.487-7.328,31.952-16.283,45.5-28.246,8.529-7.531,15.911-16,21.323-26.027,8.178-15.148,10.375-31.009,5.466-47.619-3.37-11.406-9.647-21.189-17.582-29.993-9.022-10.01-19.623-18.119-31.141-25.1-18.007-10.922-37.4-18.692-57.61-24.55A339.266,339.266,0,0,0,259.247,8.51Q246.2,7.224,233.1,6.809a390.837,390.837,0,0,0-39.978.817c-8.752.623-17.472,1.527-26.154,2.764A336.878,336.878,0,0,0,132.1,17.2,263.194,263.194,0,0,0,76.379,37.626C62.417,44.758,49.4,53.241,38.094,64.128,29.813,72.1,22.853,81.03,18.125,91.534a60.218,60.218,0,0,0-4.767,35.552,68.126,68.126,0,0,0,11.067,26.7c7.14,10.611,16.254,19.339,26.5,26.959,14.621,10.872,30.743,19.029,47.742,25.558,29.462,11.317,60.11,17.345,91.521,19.9C200.429,227.033,210.691,227.456,220.359,227.372Zm0.888-136.349a33.9,33.9,0,0,1,8.13,3.886,27.924,27.924,0,0,1,12.29,19.884,37.807,37.807,0,0,1-7.138,28.687c-5.042,6.893-12.082,10.51-20.548,11.361-8.929.9-17.906,0.78-26.866,0.848-12.1.091-24.207,0.008-36.309,0.05-1.029,0-1.2-.292-1.2-1.231q0.036-59.672,0-119.343c0-.878.151-1.184,1.129-1.181,16.174,0.048,32.349.016,48.523,0.09,5.487,0.026,11.011.168,16.324,1.675,10.54,2.99,17.1,10.166,19.874,20.353,3.19,11.724.572,22.286-8.417,30.951A25.286,25.286,0,0,1,221.247,91.023ZM189.16,135.147c5.244-.04,11.155.205,17.03-0.469,5.8-.665,9.936-3.606,11.914-9.146a20.449,20.449,0,0,0,.795-9.076,14.123,14.123,0,0,0-11.246-12.63,52.772,52.772,0,0,0-10.789-1.044c-7.916-.091-15.834-0.064-23.751-0.135-0.954-.008-1.158.267-1.154,1.169q0.049,15.123,0,30.246c0,0.835.171,1.117,1.082,1.108C178.2,135.123,183.353,135.147,189.16,135.147Zm-1.225-80.9c-5.484,0-10.19.017-14.9-.017-0.792-.006-1.086.133-1.082,1.009q0.054,13.072,0,26.143c0,0.854.246,1.022,1.06,1.017,6.684-.038,13.368-0.011,20.052-0.044,3.248-.016,6.5-0.1,9.732-0.413a12.931,12.931,0,0,0,11.5-8.952,19.039,19.039,0,0,0,.571-6.906c-0.446-6.471-5.033-11-11.6-11.436C197.909,54.288,192.533,54.3,187.935,54.244Zm72.267,40.6q0-29.755-.024-59.511c0-1.034.2-1.367,1.319-1.357,6.649,0.057,13.3.045,19.949,0.009,0.875-.005,1.109.214,1.108,1.091q-0.036,45.27,0,90.541a0.92,0.92,0,0,1-1.077,1.138,11.587,11.587,0,0,0-.473,23.06c1.532,0.2,1.532.2,1.532,1.739,0,1.108-.027,2.217.01,3.324,0.021,0.588-.1.85-0.785,0.848q-10.366-.036-20.734,0c-0.633,0-.9-0.18-0.828-0.813a6.693,6.693,0,0,0,0-.776V94.847Zm-25.513,90.7a18.945,18.945,0,0,1-1.128,6.43c-2.314,6.31-7.675,8.557-13.753,7.988-7.853-.734-10.821-6.612-11.44-12.361a16.921,16.921,0,0,1,1.548-9.269c2.1-4.393,5.716-6.564,10.544-6.834a13.036,13.036,0,0,1,9.078,2.419c3.212,2.486,4.5,5.952,5.022,9.788C234.654,184.4,234.66,185.1,234.689,185.543Zm-7.049.089a14.818,14.818,0,0,0-.3-3.735,12.5,12.5,0,0,0-.658-2.223,5.344,5.344,0,0,0-5.29-3.7,5.206,5.206,0,0,0-5.136,3.74,17.725,17.725,0,0,0,.007,12.047,5.121,5.121,0,0,0,5.24,3.713,5.238,5.238,0,0,0,5.227-3.747A15.525,15.525,0,0,0,227.64,185.632Zm-50,13.76c-2.2,0-4.215-.028-6.227.017a1.173,1.173,0,0,1-1.119-.709q-3-4.728-6.03-9.44a2.54,2.54,0,0,0-2.538-.709,0.768,0.768,0,0,0-.214.89c-0.015,2.989-.033,5.979.007,8.969,0.01,0.74-.139,1.042-0.963,1-1.415-.069-2.837-0.043-4.254-0.008-0.605.015-.851-0.123-0.85-0.786q0.033-12.844,0-25.689a0.618,0.618,0,0,1,.763-0.759c4.177,0.111,8.361-.212,12.531.2,5.624,0.558,8.8,5.236,7.09,10.429a7.538,7.538,0,0,1-4.534,4.6c-0.828.353-.962,0.589-0.444,1.371,2.062,3.113,4.049,6.275,6.061,9.421C177.142,198.531,177.337,198.879,177.643,199.392Zm-16.136-19.15c0,1.031.009,2.061,0,3.091-0.006.387,0.071,0.628,0.54,0.616,1.525-.039,3.062.055,4.571-0.11a3.1,3.1,0,0,0,2.965-3.268c0.05-2.154-.8-3.294-2.866-3.671a30.184,30.184,0,0,0-4.679-.152c-0.477-.012-0.536.245-0.531,0.624C161.515,178.329,161.506,179.286,161.507,180.242Zm-44.727.78a11.758,11.758,0,0,0-2.6-3.491c-3.114-2.7-7.4-1.866-8.932,1.917a16.869,16.869,0,0,0-.112,12.433c1.034,2.81,3.459,3.99,6.578,3.538a5.8,5.8,0,0,0,4.514-5.273c0.063-.627-0.163-0.737-0.72-0.723-1.232.033-2.465-.009-3.7,0.019-0.519.012-.74-0.13-0.721-0.681,0.035-1.069.027-2.141,0-3.211a0.541,0.541,0,0,1,.645-0.656q5.153,0.013,10.3,0a0.561,0.561,0,0,1,.681.628,20.144,20.144,0,0,1-.337,6.163,10.959,10.959,0,0,1-9.4,8.168,18.139,18.139,0,0,1-6.118-.166,10.944,10.944,0,0,1-8.221-6.656,17.431,17.431,0,0,1,.3-15.194,10.915,10.915,0,0,1,8.617-6.144,14.4,14.4,0,0,1,10.031,1.67,10.249,10.249,0,0,1,3.8,4.117,0.592,0.592,0,0,1-.264.964C119.676,179.27,118.253,180.144,116.78,181.022Zm150.531,1.008c0-2.955.024-5.911-.016-8.865-0.011-.746.15-1.049,0.972-1a34.872,34.872,0,0,0,3.92,0c0.907-.054,1.2.172,1.189,1.128-0.053,5.023-.025,10.048-0.025,15.071,0,0.481.015,0.962,0,1.441-0.173,5.612,3.575,6.324,7.783,5.328a3.405,3.405,0,0,0,2.517-3.092,17.614,17.614,0,0,0,.217-2.644c0.019-5.393.027-10.787-.009-16.18,0-.809.165-1.1,1.037-1.053,1.414,0.079,2.837.031,4.257,0.016,0.468,0,.776.043,0.769,0.639-0.074,6.278.291,12.57-.163,18.831-0.357,4.933-2.61,7.12-7.525,8.084a18.75,18.75,0,0,1-8.222-.2c-4.379-1.094-6.57-3.92-6.676-8.632-0.067-2.954-.012-5.911-0.012-8.866h-0.012Zm56.76,3.659c0-4.134.02-8.267-.017-12.4-0.007-.824.142-1.167,1.087-1.132,3.465,0.131,6.94-.15,10.4.206a16.092,16.092,0,0,1,3.064.591c4.4,1.343,6.461,4.442,6.24,9.381-0.182,4.054-2.707,6.846-6.983,7.757a28.311,28.311,0,0,1-6.795.42c-0.8-.024-1,0.233-0.981.994,0.05,2.324-.009,4.65.035,6.975,0.014,0.721-.186.96-0.931,0.928-1.378-.057-2.763-0.06-4.141,0-0.789.035-1.006-.212-1-0.988C324.09,194.177,324.071,189.933,324.071,185.689Zm6.037-4.341v3.757a1.027,1.027,0,0,1,0,.111c-0.042.466,0.054,0.785,0.644,0.759,1.19-.051,2.393.024,3.57-0.119a3.683,3.683,0,0,0,3.431-3.366,6.721,6.721,0,0,0-.025-2.3,3.741,3.741,0,0,0-2.852-3.182,17.677,17.677,0,0,0-4-.264c-0.685-.045-0.8.269-0.781,0.85C330.132,178.842,330.108,180.1,330.108,181.348Zm-47.545-52.72a9.687,9.687,0,1,1-9.869,9.532A9.768,9.768,0,0,1,282.563,128.628Z"/>
  </svg>